# xmcd CD database file
#
# Track frame offsets:
#	150
#	17557
#	26232
#	37822
#	57822
#	71047
#	90050
#	103807
#	116452
#	134635
#	156020
#	172082
#
# Disc length: 2484 seconds
#
# Revision: 2
# Processed by: cddbd v1.4PL0 Copyright (c) Steve Scherf et al.
# Submitted via: CDex 1.40Release
#
DISCID=9709b20c
DTITLE=Vera Negri - Fascínio
DYEAR=1900
DGENRE=Country
TTITLE0=Nasci pra você  (Luck in my eyes)
TTITLE1=Maria solidária
TTITLE2=Um certo estranho
TTITLE3=Fascínio
TTITLE4=Mesmo de brincadeira
TTITLE5=Nessas horas
TTITLE6=Notícias de você
TTITLE7=Tempo sem rumo
TTITLE8=Companhia
TTITLE9=Coração em greve
TTITLE10=Além de nós - Maybe it was Memphis
TTITLE11=Todo azul do mar
EXTD=Polydor 823254-2 ID3G: 2
EXTT0=Zezé Di Camargo e Luciano
EXTT1=Daniel
EXTT2=Ricj and Renner
EXTT3=Gian e Giovane
EXTT4=Concerto pour une voix
EXTT5=Phytandros
EXTT6=La fête triste
EXTT7=Symphonie pour la Pologne
EXTT8=Concerto pour piano
EXTT9=Your hair and Missa Amoris
EXTT10=Le piano d'Abigail
EXTT11=La passion
PLAYORDER=
